<?xml version="1.0" encoding="UTF-8" standalone="no"?>
<!-- Created with Inkscape (http://www.inkscape.org/) -->

<svg
   version="1.1"
   id="svg1"
   width="80"
   height="80"
   viewBox="0 0 80 79.999997"
   sodipodi:docname="logo.svg"
   inkscape:version="1.4.2 (ebf0e940d0, 2025-05-08)"
   inkscape:export-filename="logo.png"
   inkscape:export-xdpi="960"
   inkscape:export-ydpi="960"
   xmlns:inkscape="http://www.inkscape.org/namespaces/inkscape"
   xmlns:sodipodi="http://sodipodi.sourceforge.net/DTD/sodipodi-0.dtd"
   xmlns="http://www.w3.org/2000/svg"
   xmlns:svg="http://www.w3.org/2000/svg">
  <defs
     id="defs1" />
  <sodipodi:namedview
     id="namedview1"
     pagecolor="#ffffff"
     bordercolor="#000000"
     borderopacity="0.25"
     inkscape:showpageshadow="2"
     inkscape:pageopacity="0.0"
     inkscape:pagecheckerboard="0"
     inkscape:deskcolor="#d1d1d1"
     inkscape:zoom="6.3735152"
     inkscape:cx="44.0887"
     inkscape:cy="33.497998"
     inkscape:window-width="2560"
     inkscape:window-height="1406"
     inkscape:window-x="0"
     inkscape:window-y="0"
     inkscape:window-maximized="1"
     inkscape:current-layer="g5">
    <inkscape:page
       x="0"
       y="0"
       inkscape:label="1"
       id="page1"
       width="80"
       height="80"
       margin="0"
       bleed="0" />
  </sodipodi:namedview>
  <g
     inkscape:groupmode="layer"
     id="layer1"
     inkscape:label="Group 1"
     style="display:none">
    <circle
       style="fill:#3451b2;fill-opacity:1;stroke-width:1.88976;stroke-linejoin:round"
       id="path4"
       cx="40"
       cy="40"
       r="30" />
    <path
       id="path2"
       d="M 39.046873,30.000002 H 22 l 8.343748,19.031249 h 0.578125 z m -1.78125,1.156249 -5.9375,13.9375 -5.859375,-13.9375 z m 0,0"
       style="display:inline;fill:#ffffff;fill-opacity:1;fill-rule:nonzero;stroke:none;stroke-width:1.33333" />
    <path
       id="path3"
       d="m 41.996092,38.890626 c 0.4375,-0.546875 1.109375,-1.484375 2.046875,-1.484375 0.375,0 0.578125,0.21875 0.578125,0.546875 0,0.359375 -0.125,0.75 -0.125,0.75 l -1.53125,6.25 c -0.109374,0.390625 -0.28125,1.296875 -0.28125,2.015625 0,1.015625 0.421875,1.984375 1.8125,1.984375 3.234375,0 5.4375,-3.78125 6.484375,-5.703125 h 0.25 c -0.468751,1.78125 -0.890625,2.890625 -0.890625,4.1875 0,1.203125 0.90625,1.484375 1.65625,1.484375 1.6875,0 2.703124,-1.125 3.906249,-2.890625 l -0.578125,-0.421875 c 0,0 -1.015624,1.4375 -2,1.4375 -0.453124,0 -0.578124,-0.25 -0.578124,-0.46875 0,-0.40625 0.15625,-1.1875 0.15625,-1.1875 l 1.984374,-9.671875 h -2.281249 l -0.828125,3.8125 c -0.640626,2.8125 -3.859375,7.4375 -5.890626,7.4375 -0.640624,0 -0.828124,-0.46875 -0.828124,-1.140625 0,-0.546875 0.1875,-1.3125 0.1875,-1.3125 l 1.65625,-6.3125 c 0.03125,-0.140625 0.140625,-0.609375 0.140625,-1.078125 0,-0.796875 -0.421875,-1.59375 -1.734375,-1.59375 -1.96875,0 -3.171876,1.90625 -3.859376,2.921875 z m 0,0"
       style="fill:#ffffff;fill-opacity:1;fill-rule:nonzero;stroke:none;stroke-width:1.33333" />
  </g>
  <g
     inkscape:groupmode="layer"
     id="g5"
     inkscape:label="Group 1 copy">
    <path
       id="circle1"
       style="fill:#3451b2;fill-opacity:1;stroke-width:1.88976;stroke-linejoin:round"
       d="M 40 10 A 30 30 0 0 0 10 40 A 30 30 0 0 0 40 70 A 30 30 0 0 0 70 40 A 30 30 0 0 0 40 10 z M 22 30 L 39.046875 30 L 30.921875 49.03125 L 30.34375 49.03125 L 22 30 z M 25.46875 31.15625 L 31.328125 45.09375 L 37.265625 31.15625 L 25.46875 31.15625 z M 45.308594 35.53125 C 46.621094 35.53125 47.042969 36.328125 47.042969 37.125 C 47.042969 37.59375 46.933594 38.0625 46.902344 38.203125 L 45.246094 44.515625 C 45.246094 44.515625 45.058594 45.28125 45.058594 45.828125 C 45.058594 46.5 45.246095 46.96875 45.886719 46.96875 C 47.91797 46.96875 51.136718 42.34375 51.777344 39.53125 L 52.605469 35.71875 L 54.886719 35.71875 L 52.902344 45.390625 C 52.902344 45.390625 52.746094 46.171875 52.746094 46.578125 C 52.746094 46.796875 52.871095 47.046875 53.324219 47.046875 C 54.308595 47.046875 55.324219 45.609375 55.324219 45.609375 L 55.902344 46.03125 C 54.699219 47.796875 53.683594 48.921875 51.996094 48.921875 C 51.246094 48.921875 50.339844 48.640625 50.339844 47.4375 C 50.339844 46.140625 50.761718 45.03125 51.230469 43.25 L 50.980469 43.25 C 49.933594 45.171875 47.730469 48.953125 44.496094 48.953125 C 43.105469 48.953125 42.683594 47.984375 42.683594 46.96875 C 42.683594 46.25 42.85547 45.34375 42.964844 44.953125 L 44.496094 38.703125 C 44.496094 38.703125 44.621094 38.3125 44.621094 37.953125 C 44.621094 37.625 44.417969 37.40625 44.042969 37.40625 C 43.105469 37.40625 42.433594 38.34375 41.996094 38.890625 L 41.449219 38.453125 C 42.136719 37.4375 43.339844 35.53125 45.308594 35.53125 z " />
  </g>
</svg>
